/* XPM */
static const char *const audioright_xpm[] = {
"27 18 3 1",
" 	c None",
".	c #8D8F8D",
"+	c #000000",
"...........................",
"...........................",
"..+++++++++++++++++++++++..",
"..+++++++++++++++++++++++..",
"..++...................++..",
"..++...................++..",
"..++............++++...++..",
"..++...........++..++..++..",
"..++..........++....++.++..",
"..++...........++..++..++..",
"..++............++++...++..",
"..++...................++..",
"..++...................++..",
"..++...................++..",
"..+++++++++++++++++++++++..",
"..+++++++++++++++++++++++..",
"...........................",
"..........................."};
