/* XPM */
static const char *const eventrecording_xpm[] = {
"16 22 2 1",
".	c #FFFFFF",
"+	c #000000",
"................",
"................",
"+++++...........",
"++++++..........",
"++..++..........",
"++..++..........",
"++++++....++++..",
"+++++....++++++.",
"++++++...++..++.",
"++.+++...++.....",
"++..+.+++.+.....",
"++...++++.+.....",
"....++...++.....",
"....++...++..++.",
"....++++.++++++.",
"....++++..++++..",
"....++..........",
"....++..........",
"....+++++.......",
"....+++++.......",
"................",
"................"};
